<svg height="100%" viewBox="0 0 169 224" fill="none" xmlns="http://www.w3.org/2000/svg">
<path d="M15.8 203.505L13.6 206.105C12.5 204.805 10.8 204.005 9.3 204.005C6.5 204.005 4.3 206.205 4.3 209.105C4.3 212.005 6.5 214.205 9.3 214.205C10.8 214.205 12.4 213.405 13.6 212.305L15.8 214.705C14.1 216.505 11.5 217.605 9.1 217.605C4.2 217.605 0.5 214.005 0.5 209.205C0.5 204.505 4.3 200.905 9.3 200.905C11.7 200.805 14.2 201.805 15.8 203.505Z" fill="white"/>
<path d="M22.4984 214.098L21.1984 217.298H17.3984L24.4984 200.898H28.2984L35.2984 217.298H31.2984L29.9984 214.098H22.4984ZM26.3984 204.798L23.7984 211.198H28.9984L26.3984 204.798Z" fill="white"/>
<path d="M50.7016 202.499L49.3016 205.599C47.6016 204.599 45.5016 203.899 44.2016 203.899C43.0016 203.899 42.1016 204.299 42.1016 205.199C42.1016 208.199 50.9016 206.499 50.8016 212.499C50.8016 215.699 48.0016 217.499 44.4016 217.499C41.7016 217.499 39.0016 216.499 37.1016 214.899L38.6016 211.899C40.3016 213.399 42.7016 214.399 44.4016 214.399C45.9016 214.399 46.8016 213.799 46.8016 212.799C46.8016 209.699 38.0016 211.499 38.0016 205.699C38.0016 202.699 40.6016 200.799 44.4016 200.799C46.8016 200.699 49.1016 201.399 50.7016 202.499Z" fill="white"/>
<path d="M57.9984 214.098L56.6984 217.298H52.8984L59.9984 200.898H63.7984L70.7984 217.298H66.7984L65.4984 214.098H57.9984ZM61.7984 204.798L59.1984 211.198H64.3984L61.7984 204.798Z" fill="white"/>
<path d="M88.0031 199.802C88.3031 200.002 88.4031 200.302 88.4031 200.702C88.4031 200.902 88.3031 201.102 88.2031 201.302C88.1031 201.502 87.8031 201.602 87.5031 201.602C87.2031 201.602 86.9031 201.502 86.8031 201.302C86.6031 201.102 86.5031 200.802 86.6031 200.502C86.5031 200.402 86.3031 200.402 86.1031 200.402C85.4031 200.402 84.8031 200.802 84.5031 201.702C84.2031 202.602 83.9031 203.902 83.8031 205.602H87.1031L87.0031 206.502H83.7031L83.6031 207.802C83.5031 209.602 83.4031 210.902 83.3031 211.702L83.2031 213.402C83.0031 215.702 82.8031 217.502 82.5031 218.902C82.2031 220.202 81.8031 221.402 81.1031 222.302C80.4031 223.202 79.4031 223.702 78.1031 223.702C77.5031 223.702 77.1031 223.602 76.7031 223.402C76.4031 223.202 76.2031 222.902 76.2031 222.502C76.2031 222.302 76.3031 222.102 76.4031 221.902C76.5031 221.702 76.8031 221.602 77.1031 221.602C77.4031 221.602 77.6031 221.702 77.8031 221.902C78.0031 222.102 78.1031 222.402 78.1031 222.702C78.3031 222.802 78.5031 222.902 78.8031 222.902C79.4031 222.902 79.8031 222.602 80.1031 222.002C80.4031 221.402 80.6031 220.602 80.7031 219.602C80.8031 218.602 81.0031 217.102 81.1031 215.202C81.2031 213.602 81.3031 212.502 81.4031 211.702L81.5031 210.002C81.6031 208.802 81.7031 207.702 81.8031 206.702H79.7031L79.8031 205.702H82.0031C82.3031 203.802 82.8031 202.302 83.5031 201.202C84.2031 200.102 85.3031 199.602 86.8031 199.602C87.3031 199.502 87.7031 199.602 88.0031 199.802Z" fill="white"/>
<path d="M95.6 205.9C96.3 206.3 96.8 206.9 97.2 207.7C97.6 208.5 97.8 209.4 97.8 210.5C97.8 211.8 97.6 213 97.1 214C96.6 215.1 96 215.9 95.1 216.6C94.2 217.2 93.2 217.6 92 217.6C90.5 217.6 89.4 217.1 88.6 216.1C87.8 215.1 87.5 213.9 87.5 212.3C87.5 211 87.7 209.8 88.2 208.8C88.7 207.7 89.3 206.9 90.2 206.3C91.1 205.7 92.1 205.4 93.3 205.4C94.2 205.3 94.9 205.5 95.6 205.9ZM91.1 206.9C90.6 207.4 90.2 208.1 89.9 208.9C89.6 209.8 89.5 210.7 89.5 211.8C89.5 213.1 89.7 214.2 90.1 215.2C90.5 216.2 91.2 216.7 92.2 216.7C93 216.7 93.7 216.4 94.2 215.8C94.7 215.2 95.1 214.4 95.3 213.5C95.5 212.6 95.7 211.7 95.7 210.9C95.7 209.6 95.5 208.5 95.1 207.6C94.7 206.7 94 206.2 93 206.2C92.3 206.2 91.7 206.4 91.1 206.9Z" fill="white"/>
<path d="M109.1 205.702C109.4 205.902 109.6 206.302 109.6 206.702C109.6 207.002 109.5 207.302 109.3 207.502C109.1 207.702 108.8 207.802 108.5 207.802C108.2 207.802 108 207.702 107.8 207.502C107.6 207.302 107.5 207.102 107.4 206.802C107.3 206.802 107.3 206.802 107.1 206.802C106.4 206.802 105.8 207.302 105.2 208.402C104.6 209.402 104.1 210.702 103.7 212.202C103.3 213.702 103.1 215.102 103.1 216.302C103.1 216.402 103.1 216.802 103.1 217.302H101.2C101.2 217.202 101.2 217.002 101.2 216.702C101.2 215.702 101.3 214.102 101.6 211.902L101.9 209.202C102 208.402 102 207.802 102 207.602C102 207.302 102 207.002 101.9 206.802C101.8 206.602 101.6 206.502 101.4 206.502C101.1 206.502 100.8 206.702 100.5 207.102C100.2 207.502 99.9 208.002 99.7 208.802L99 208.702C99.1 208.302 99.2 207.802 99.5 207.302C99.8 206.802 100.1 206.302 100.5 206.002C100.9 205.602 101.4 205.402 102 205.402C102.6 205.402 103 205.602 103.3 206.002C103.6 206.402 103.7 207.002 103.7 207.702C103.7 208.402 103.6 209.402 103.3 210.502H103.4C104 208.602 104.7 207.302 105.5 206.502C106.2 205.702 107 205.402 107.9 205.402C108.4 205.302 108.8 205.502 109.1 205.702Z" fill="white"/>
<path d="M128.3 214.098V217.298H117.5V200.898H121.2V214.098H128.3V214.098Z" fill="white"/>
<path d="M131.898 217.298V200.898H135.598V217.298H131.898Z" fill="white"/>
<path d="M144.403 203.998V207.998H151.803V211.098H144.403V217.298H140.703V200.898H152.503V203.998H144.403Z" fill="white"/>
<path d="M159.802 204V207.6H167.702V210.7H159.802V214.3H168.902V217.4H156.102V201H168.602V204.1H159.802V204Z" fill="white"/>
<path d="M145.2 58.6031C142.7 26.2031 116.5 0.703125 84.7 0.703125C57.1 0.703125 33.7 19.9031 26.4 46.2031C26 47.7031 25.6 49.2031 25.3 50.8031C24.7 53.6031 24.4 56.4031 24.2 59.3031C24.1 60.7031 24 62.2031 24 63.7031V65.0031V84.1031V90.9031V114.503C24 119.803 24.6 124.903 25.8 129.803C26.1 131.203 26.5 132.603 27 134.003C34.9 159.203 57.8 177.503 84.7 177.503C111.6 177.503 134.5 159.203 142.4 134.003C142.8 132.703 143.2 131.303 143.5 130.003C144.7 125.103 145.3 119.903 145.3 114.603V90.9031V84.1031V64.2031V63.6031C145.4 61.9031 145.3 60.3031 145.2 58.6031ZM141.2 114.403C141.2 119.703 140.5 124.803 139.3 129.703H128.6C126.9 123.803 126.1 117.703 126.1 111.503C126.1 109.303 126.2 107.103 126.4 105.003C128.1 104.203 129.7 103.403 131.3 102.503C134.9 100.403 138.3 98.0031 141.3 95.2031L141.2 114.403ZM125.6 71.6031C125.6 67.9031 126 64.2031 126.8 60.7031C127.4 60.6031 128.1 60.5031 128.7 60.4031C133.3 59.5031 137.3 57.3031 140.5 54.0031C140.9 56.8031 141.2 59.6031 141.2 62.5031C135.3 68.8031 130.5 76.2031 127.2 84.2031C126.1 80.2031 125.6 75.9031 125.6 71.6031ZM84.7 4.90312C110.9 4.90312 133 23.6031 139.4 48.8031C136.7 52.7031 132.6 55.3031 128 56.3031C128.2 55.7031 128.4 55.1031 128.6 54.5031C130.2 50.0031 132.5 45.7031 135.2 41.9031C135.9 41.0031 135.7 39.6031 134.7 39.0031C133.7 38.4031 132.4 38.5031 131.8 39.5031C128.8 43.7031 126.4 48.3031 124.6 53.2031C122.5 59.1031 121.4 65.4031 121.4 71.7031C121.4 78.3031 122.6 84.8031 124.8 90.9031C123.8 94.1031 123.1 97.5031 122.6 100.803V101.103C122.1 104.503 121.8 108.103 121.8 111.603C121.8 117.803 122.6 123.903 124.2 129.803H114.2C115.8 123.903 116.6 117.703 116.6 111.603C116.6 108.103 116.3 104.603 115.8 101.103V100.903C115.3 97.3031 114.4 93.8031 113.4 90.4031C115.5 84.5031 116.6 78.4031 116.6 71.8031C116.6 65.4031 115.5 59.2031 113.4 53.3031C111.7 48.4031 109.2 43.8031 106.2 39.6031C105.5 38.7031 104.2 38.5031 103.3 39.1031C102.4 39.8031 102.1 41.1031 102.8 42.0031C105.6 45.9031 107.8 50.1031 109.4 54.6031C109.6 55.2031 109.8 55.8031 110 56.4031C105.1 55.4031 100.9 52.5031 98.2 48.4031C97.6 47.4031 96.3 47.1031 95.3 47.8031C94.3 48.4031 94.1 49.7031 94.7 50.7031C98.1 55.9031 103.3 59.4031 109.3 60.6031C109.9 60.7031 110.5 60.8031 111.2 60.9031C112 64.5031 112.4 68.1031 112.4 71.8031C112.4 76.0031 111.9 80.1031 111 83.9031C107.1 74.9031 100.4 64.6031 92 57.8031C91 57.0031 89.7 57.1031 89 58.0031C88.3 58.9031 88.4 60.2031 89.3 60.9031C97.4 67.5031 105.6 79.8031 109.2 90.8031C110.2 93.8031 110.9 96.9031 111.4 100.003C105.2 96.7031 93.2 87.0031 86.5 75.1031L86.4 75.0031C86.4 74.9031 86.3 74.9031 86.3 74.8031C86.3 74.7031 86.2 74.7031 86.2 74.7031C86.1 74.6031 86.1 74.6031 86.1 74.6031C86.1 74.6031 86 74.5031 85.9 74.5031L85.8 74.4031C85.7 74.4031 85.7 74.3031 85.6 74.3031C85.5 74.3031 85.5 74.2031 85.4 74.2031C85.3 74.2031 85.3 74.2031 85.2 74.2031C85.1 74.2031 85.1 74.2031 85 74.2031H84.6C84.5 74.2031 84.5 74.2031 84.4 74.2031C84.3 74.2031 84.3 74.2031 84.2 74.2031C84.1 74.2031 84.1 74.3031 84 74.3031C83.9 74.3031 83.9 74.4031 83.8 74.4031C83.8 74.4031 83.8 74.4031 83.7 74.4031L83.6 74.5031C83.5 74.5031 83.5 74.6031 83.4 74.6031C83.3 74.7031 83.3 74.7031 83.3 74.7031C83.3 74.8031 83.2 74.8031 83.2 74.8031C83.1 74.9031 83.1 74.9031 83.1 75.0031L83 75.1031C76.1 87.4031 63.4 97.5031 57.5 100.403C58 97.2031 58.8 94.0031 59.8 90.9031C63.3 79.9031 71.5 67.6031 79.7 61.0031C80.6 60.3031 80.7 58.9031 80 58.1031C79.3 57.3031 77.9 57.1031 77.1 57.8031C68.7 64.5031 62 74.9031 58.1 83.8031C57.2 79.9031 56.7 75.8031 56.7 71.7031C56.7 67.6031 57.2 63.6031 58.1 59.7031C59 59.6031 59.9 59.5031 60.8 59.3031C66.9 58.1031 72.1 54.6031 75.4 49.4031C76 48.4031 75.8 47.1031 74.8 46.5031C73.8 45.9031 72.5 46.1031 71.9 47.1031C69.1 51.3031 64.9 54.2031 60 55.2031C59.8 55.2031 59.6 55.3031 59.4 55.3031C60.7 50.5031 63 46.0031 66 41.9031C66.7 41.0031 66.5 39.6031 65.5 39.0031C64.5 38.4031 63.2 38.5031 62.6 39.5031C55.8 48.8031 52.2 60.0031 52.2 71.6031C52.2 78.0031 53.3 84.2031 55.4 90.2031C54.3 93.6031 53.5 97.2031 53 100.703V101.003C52.5 104.403 52.2 108.003 52.2 111.503C52.2 117.703 53 123.803 54.6 129.703H44.5C46.1 123.803 46.9 117.603 46.9 111.503C46.9 108.603 46.7 105.803 46.4 103.003C46.4 102.903 46.4 102.903 46.4 102.903C46.3 102.303 46.3 101.803 46.2 101.203V100.903C45.7 97.6031 44.9 94.2031 44 91.0031C46.3 84.9031 47.4 78.4031 47.4 71.8031C47.4 60.1031 43.8 49.0031 37 39.6031C36.3 38.7031 35 38.4031 34.1 39.1031C33.2 39.8031 32.9 41.1031 33.6 42.0031C36.6 46.1031 38.9 50.6031 40.5 55.4031C40.3 55.4031 40.1 55.3031 39.9 55.3031C36 54.5031 32.6 52.6031 29.9 49.7031C35.9 23.9031 58.2 4.90312 84.7 4.90312ZM84.4 109.603C78.1 109.603 73 114.703 73 121.003V129.703H59C57.3 123.803 56.5 117.703 56.5 111.503C56.5 109.403 56.6 107.203 56.8 105.103C62.8 103.303 76.4 93.0031 84.7 80.2031C92.8 92.6031 105.8 102.703 112.1 104.903C112.3 107.103 112.4 109.303 112.4 111.503C112.4 117.703 111.5 123.803 109.9 129.703H95.8V121.003C95.8 114.703 90.7 109.603 84.4 109.603ZM91.6 121.003V129.703H77.2V121.003C77.2 117.103 80.4 113.803 84.4 113.803C88.4 113.803 91.6 117.003 91.6 121.003ZM28.9 54.5031C31.8 56.9031 35.2 58.5031 39 59.3031C39.9 59.5031 40.8 59.6031 41.7 59.7031C42.6 63.6031 43.1 67.6031 43.1 71.7031C43.1 76.0031 42.6 80.2031 41.5 84.3031C38.3 76.6031 33.8 69.5031 28.2 63.4031C28.2 60.3031 28.5 57.4031 28.9 54.5031ZM28.2 69.8031C33.2 76.1031 37.1 83.3031 39.5 91.0031C40.4 93.8031 41.1 96.7031 41.6 99.6031C41.1 99.4031 40.7 99.1031 40.2 98.9031C35.7 96.3031 31.6 93.1031 28.1 89.3031V69.8031H28.2ZM28.2 114.403V95.1031C31.2 97.9031 34.5 100.303 38.2 102.403C39.5 103.203 41 103.903 42.4 104.503C42.6 106.803 42.7 109.103 42.7 111.403C42.7 117.603 41.9 123.703 40.2 129.603H30.2C28.9 124.803 28.2 119.703 28.2 114.403ZM84.7 173.203C60.1 173.203 39.1 156.803 31.4 133.903H138C130.3 156.703 109.3 173.203 84.7 173.203ZM141.2 89.3031C137.7 93.0031 133.7 96.3031 129.1 98.9031C128.4 99.3031 127.7 99.7031 127 100.003C127.5 96.9031 128.3 93.9031 129.2 90.9031C131.8 82.9031 135.9 75.5031 141.2 69.0031V89.3031Z" fill="white"/>
</svg>
