<svg width="46" height="46" viewBox="0 0 46 46" fill="none" xmlns="http://www.w3.org/2000/svg">
<path d="M41.3762 16.0141L41.3291 15.6974L41.2801 15.7087C40.9451 14.1423 40.1735 12.7028 39.0545 11.5567C37.9355 10.4106 36.5149 9.60475 34.957 9.23239C33.3991 8.86003 31.7676 8.93637 30.2513 9.4526C28.735 9.96883 27.3958 10.9038 26.3888 12.1494C25.3817 13.395 24.7479 14.9003 24.5607 16.4911C24.3735 18.0819 24.6406 19.6932 25.3309 21.1386C26.0213 22.5839 27.1069 23.8043 28.4619 24.6584C29.817 25.5125 31.3862 25.9655 32.9879 25.965C33.4083 25.965 33.8117 25.9009 34.2132 25.8425C34.0831 26.2798 33.9493 26.7247 33.7344 27.1243C33.5195 27.7049 33.184 28.2081 32.8503 28.7152C32.5714 29.2637 32.0794 29.6351 31.7174 30.1045C31.3386 30.5606 30.8221 30.8641 30.413 31.243C30.0115 31.6388 29.4856 31.8368 29.0671 32.1158C28.6298 32.3665 28.249 32.6436 27.8419 32.7755L26.8259 33.194L25.9324 33.5653L26.8447 37.2203L27.9701 36.9489C28.3301 36.8584 28.7693 36.7529 29.2688 36.6266C29.7797 36.5323 30.3244 36.2741 30.9314 36.0384C31.5289 35.7689 32.2245 35.5898 32.8692 35.1581C33.5176 34.7472 34.266 34.4041 34.9257 33.8537C35.5647 33.2863 36.3357 32.7944 36.905 32.0743C37.527 31.3995 38.1415 30.6907 38.6184 29.8839C39.1707 29.1148 39.5459 28.2704 39.9417 27.4353C40.2999 26.6002 40.5883 25.7463 40.8239 24.9169C41.2706 23.2544 41.4704 21.6747 41.5477 20.3232C41.6118 18.9698 41.5741 17.8444 41.4949 17.0301C41.4685 16.69 41.4288 16.3511 41.3762 16.0141V16.0141ZM20.6412 16.0141L20.5941 15.6974L20.5451 15.7087C20.2101 14.1423 19.4385 12.7028 18.3195 11.5567C17.2005 10.4106 15.7799 9.60475 14.222 9.23239C12.6641 8.86003 11.0326 8.93637 9.5163 9.4526C7.99999 9.96883 6.66083 10.9038 5.65377 12.1494C4.64671 13.395 4.01292 14.9003 3.82571 16.4911C3.63851 18.0819 3.90555 19.6932 4.59595 21.1386C5.28634 22.5839 6.37186 23.8043 7.72691 24.6584C9.08196 25.5125 10.6512 25.9655 12.2529 25.965C12.6733 25.965 13.0767 25.9009 13.4782 25.8425C13.3481 26.2798 13.2143 26.7247 12.9994 27.1243C12.7845 27.7049 12.449 28.2081 12.1153 28.7152C11.8364 29.2637 11.3444 29.6351 10.9824 30.1045C10.6036 30.5606 10.0871 30.8641 9.67803 31.243C9.27652 31.6388 8.75061 31.8368 8.33214 32.1158C7.89482 32.3665 7.51405 32.6436 7.10689 32.7755L6.09087 33.194C5.52349 33.4258 5.19927 33.5616 5.19927 33.5616L6.11161 37.2166L7.23695 36.9451C7.59699 36.8546 8.03619 36.7491 8.53572 36.6228C9.04655 36.5285 9.59132 36.2703 10.1983 36.0347C10.7958 35.7651 11.4914 35.586 12.1361 35.1544C12.7845 34.7434 13.5329 34.4004 14.1926 33.85C14.8316 33.2826 15.6026 32.7906 16.1719 32.0705C16.7939 31.3957 17.4084 30.6869 17.8853 29.8801C18.4376 29.1111 18.8127 28.2666 19.2086 27.4315C19.5667 26.5965 19.8551 25.7426 20.0908 24.9132C20.5375 23.2506 20.7373 21.671 20.8146 20.3194C20.8787 18.966 20.841 17.8407 20.7618 17.0263C20.7337 16.6876 20.6934 16.35 20.6412 16.0141V16.0141Z" fill="black"/>
</svg>
